<?xml version="1.0" encoding="UTF-8" standalone="no"?>
<!-- Created with Inkscape (http://www.inkscape.org/) -->

<svg
   xmlns:dc="http://purl.org/dc/elements/1.1/"
   xmlns:cc="http://creativecommons.org/ns#"
   xmlns:rdf="http://www.w3.org/1999/02/22-rdf-syntax-ns#"
   xmlns:svg="http://www.w3.org/2000/svg"
   xmlns="http://www.w3.org/2000/svg"
   xmlns:sodipodi="http://sodipodi.sourceforge.net/DTD/sodipodi-0.dtd"
   xmlns:inkscape="http://www.inkscape.org/namespaces/inkscape"
   width="575.38623"
   height="78.261024"
   id="svg2"
   version="1.1"
   inkscape:version="0.48.5 r10040"
   sodipodi:docname="videopac.svg">
  <defs
     id="defs4" />
  <sodipodi:namedview
     id="base"
     pagecolor="#ffffff"
     bordercolor="#666666"
     borderopacity="1.0"
     inkscape:pageopacity="0.0"
     inkscape:pageshadow="2"
     inkscape:zoom="1.979899"
     inkscape:cx="313.96682"
     inkscape:cy="38.914187"
     inkscape:document-units="px"
     inkscape:current-layer="layer1"
     showgrid="false"
     fit-margin-top="0"
     fit-margin-left="0"
     fit-margin-right="0"
     fit-margin-bottom="0"
     inkscape:window-width="1680"
     inkscape:window-height="988"
     inkscape:window-x="-8"
     inkscape:window-y="-8"
     inkscape:window-maximized="1" />
  <metadata
     id="metadata7">
    <rdf:RDF>
      <cc:Work
         rdf:about="">
        <dc:format>image/svg+xml</dc:format>
        <dc:type
           rdf:resource="http://purl.org/dc/dcmitype/StillImage" />
        <dc:title />
      </cc:Work>
    </rdf:RDF>
  </metadata>
  <g
     inkscape:label="Layer 1"
     inkscape:groupmode="layer"
     id="layer1"
     transform="translate(-76.179684,-200.59862)">
    <g
       transform="matrix(2.8621176,0,0,2.8621176,-141.85554,-519.26946)"
       style="font-size:40px;font-style:normal;font-weight:normal;line-height:125%;letter-spacing:0px;word-spacing:0px;fill:#000000;fill-opacity:1;stroke:none;font-family:Videopac;-inkscape-font-specification:Videopac"
       id="flowRoot2985">
      <path
         d="m 94.734375,271.57449 -3.90625,7.28516 -14.648438,-27.34375 7.8125,0 z m -2.929688,-9.12109 5.859375,-10.9375 7.812498,0 -9.765623,18.22265 z"
         style=""
         id="path2987" />
      <path
         d="m 107.46875,251.5159 6.85547,0 -0.0195,27.34375 -6.83594,0 z"
         style=""
         id="path2989" />
      <path
         d="m 117.23438,251.5159 6.85546,0 -0.0195,27.34375 -6.83593,0 z m 8.78906,6.83594 0,-6.83594 2.92968,0 c 3.77603,3e-5 6.99868,1.33466 9.66797,4.0039 2.66925,2.6693 4.00388,5.89195 4.00391,9.66797 -3e-5,3.77605 -1.33466,6.99871 -4.00391,9.66797 -2.66929,2.66927 -5.89194,4.00391 -9.66797,4.00391 l -2.92968,0 0,-6.83594 2.92968,0 c 1.88801,1e-5 3.49934,-0.66731 4.83399,-2.00195 1.33462,-1.33463 2.00193,-2.94595 2.00195,-4.83399 -2e-5,-1.888 -0.66733,-3.49933 -2.00195,-4.83398 -1.33465,-1.33462 -2.94598,-2.00193 -4.83399,-2.00195 z"
         style=""
         id="path2991" />
      <path
         d="m 145.59375,251.5159 6.85547,0 -0.0195,27.34375 -6.83594,0 z m 8.78906,0 10.74219,0 0,6.83594 -10.74219,0 z m 0,20.50781 10.74219,0 0,6.83594 -10.74219,0 z m 0,-10.25391 10.74219,0 0,6.83594 -10.74219,0 z"
         style=""
         id="path2993" />
      <path
         d="m 188.54297,266.16434 6.875,0 c -0.20836,3.35938 -1.53649,6.25651 -3.98438,8.6914 -2.66929,2.66927 -5.89194,4.00391 -9.66797,4.00391 -3.77605,0 -6.9987,-1.33464 -9.66796,-4.00391 -2.4349,-2.43489 -3.75651,-5.33202 -3.96485,-8.6914 l 6.875,0 c 0.19531,1.47136 0.83984,2.75391 1.9336,3.84765 1.32811,1.34115 2.93618,2.01173 4.82421,2.01172 1.88801,1e-5 3.50259,-0.67057 4.84375,-2.01172 1.09374,-1.09374 1.73827,-2.37629 1.9336,-3.84765 z m -13.53516,-1.95313 -6.875,0 c 0.20834,-3.35936 1.52995,-6.25649 3.96485,-8.69141 2.66926,-2.66924 5.89191,-4.00387 9.66796,-4.0039 3.77603,3e-5 6.99868,1.33466 9.66797,4.0039 2.44789,2.43492 3.77602,5.33205 3.98438,8.69141 l -6.875,0 c -0.19533,-1.47134 -0.83986,-2.7604 -1.9336,-3.86719 -1.34116,-1.3281 -2.95574,-1.99216 -4.84375,-1.99218 -1.88803,2e-5 -3.4961,0.66408 -4.82421,1.99218 -1.09376,1.10679 -1.73829,2.39585 -1.9336,3.86719 z"
         style=""
         id="path2995" />
      <path
         d="m 198.40625,251.5159 6.83594,0 0,27.34375 -6.83594,0 z m 8.78906,6.83594 0,-6.83594 3.67188,0 c 2.35675,3e-5 4.36847,0.83336 6.03515,2.5 1.66665,1.66669 2.49998,3.6784 2.5,6.03515 -2e-5,2.36981 -0.83335,4.38804 -2.5,6.05469 -1.66668,1.66668 -3.6784,2.50001 -6.03515,2.5 l -3.67188,0 0,-6.83594 3.67188,0 c 0.46873,2e-5 0.86912,-0.16599 1.20117,-0.49804 0.33202,-0.33202 0.49803,-0.73892 0.49805,-1.22071 -2e-5,-0.46873 -0.16603,-0.86912 -0.49805,-1.20117 -0.33205,-0.33201 -0.73244,-0.49802 -1.20117,-0.49804 z"
         style=""
         id="path2997" />
      <path
         d="m 234.53906,267.92215 -5.85937,10.9375 -7.8125,0 9.76562,-18.22266 z m 2.85156,1.66015 -5.78125,-10.78125 3.90625,-7.28515 14.64844,27.34375 -7.8125,0 -1.30859,-2.44141 -9.10156,0 3.65234,-6.83594 z"
         style=""
         id="path2999" />
      <path
         d="m 264.85156,271.96512 0,6.85547 c -3.35938,-0.20834 -6.25651,-1.52995 -8.6914,-3.96485 -2.66928,-2.66926 -4.00391,-5.89192 -4.00391,-9.66797 0,-3.77602 1.33463,-6.99867 4.00391,-9.66797 2.43489,-2.43487 5.33202,-3.75648 8.6914,-3.96484 l 0,6.85547 c -1.47136,0.19533 -2.75391,0.83986 -3.84765,1.93359 -1.34116,1.34117 -2.01173,2.95575 -2.01172,4.84375 -10e-6,1.88804 0.67056,3.49611 2.01172,4.82422 1.09374,1.10678 2.37629,1.75782 3.84765,1.95313 z m 6.67969,-10.58594 c -0.24741,-0.36457 -0.53387,-0.70962 -0.85938,-1.03516 -1.10678,-1.09373 -2.39584,-1.73826 -3.86718,-1.93359 l 0,-6.85547 c 3.35935,0.20836 6.25649,1.52997 8.6914,3.96484 0.65102,0.65107 1.22394,1.34117 1.71875,2.07032 z m 5.68359,11.40625 c -0.49481,0.72917 -1.06773,1.41927 -1.71875,2.07031 -2.43491,2.4349 -5.33205,3.75651 -8.6914,3.96485 l 0,-6.85547 c 1.47134,-0.19531 2.7604,-0.84635 3.86718,-1.95313 0.32551,-0.32551 0.61197,-0.66405 0.85938,-1.01562 z"
         style=""
         id="path3001" />
    </g>
  </g>
</svg>
